<?xml version="1.0"?>
<svg xmlns="http://www.w3.org/2000/svg" width="113" height="22" viewBox="0 0 113 22" fill="none">
<path d="M10.1731 0.769531L12.4571 7.79895H19.8482L13.8687 12.1434L16.1527 19.1728L10.1731 14.8284L4.19349 19.1728L6.47749 12.1434L0.497906 7.79895H7.88908L10.1731 0.769531Z" fill="white"/>
<path d="M33.173 0.769531L35.457 7.79895H42.8482L36.8686 12.1434L39.1526 19.1728L33.173 14.8284L27.1934 19.1728L29.4774 12.1434L23.4979 7.79895H30.889L33.173 0.769531Z" fill="white"/>
<path d="M56.173 0.769531L58.457 7.79895H65.8482L59.8686 12.1434L62.1526 19.1728L56.173 14.8284L50.1934 19.1728L52.4774 12.1434L46.4979 7.79895H53.889L56.173 0.769531Z" fill="white"/>
<path d="M79.173 0.769531L81.457 7.79895H88.8482L82.8686 12.1434L85.1526 19.1728L79.173 14.8284L73.1934 19.1728L75.4774 12.1434L69.4979 7.79895H76.889L79.173 0.769531Z" fill="white"/>
<path d="M102.173 0.769531L104.457 7.79895H111.848L105.869 12.1434L108.153 19.1728L102.173 14.8284L96.1934 19.1728L98.4774 12.1434L92.4979 7.79895H99.889L102.173 0.769531Z" fill="white"/>
</svg>
